<svg width="282" height="246" viewBox="0 0 282 246" fill="none" xmlns="http://www.w3.org/2000/svg">
<path d="M80.6697 17.5625H201.33L264.375 122.938L17.625 122.938L80.6697 17.5625ZM2.36179 114.156C0.814874 116.826 0.000488281 119.855 0.000488281 122.938C0.000488281 126.02 0.814874 129.049 2.36179 131.719L65.4064 237.094C66.9533 239.764 69.1782 241.981 71.8574 243.522C74.5367 245.063 77.5759 245.875 80.6697 245.875H201.33C204.424 245.875 207.463 245.063 210.143 243.522C212.822 241.981 215.047 239.764 216.594 237.094L279.638 131.719C281.185 129.049 282 126.02 282 122.938C282 119.855 281.185 116.826 279.638 114.156L216.594 8.78125C215.047 6.11148 212.822 3.89447 210.143 2.35304C207.463 0.811615 204.424 7.62939e-05 201.33 0H80.6697C77.5759 7.62939e-05 74.5367 0.811615 71.8574 2.35304C69.1782 3.89447 66.9533 6.11148 65.4064 8.78125L2.36179 114.156Z" fill="url(#paint0_linear_42_588)"/>
<defs>
<linearGradient id="paint0_linear_42_588" x1="141" y1="0" x2="141" y2="245.875" gradientUnits="userSpaceOnUse">
<stop stop-color="#95BEF5"/>
<stop offset="1" stop-color="#4444A2"/>
</linearGradient>
</defs>
</svg>
